%TF.GenerationSoftware,KiCad,Pcbnew,8.0.6*%
%TF.CreationDate,2024-11-12T14:44:17+00:00*%
%TF.ProjectId,A4,41342e6b-6963-4616-945f-706362585858,rev?*%
%TF.SameCoordinates,Original*%
%TF.FileFunction,Soldermask,Top*%
%TF.FilePolarity,Negative*%
%FSLAX46Y46*%
G04 Gerber Fmt 4.6, Leading zero omitted, Abs format (unit mm)*
G04 Created by KiCad (PCBNEW 8.0.6) date 2024-11-12 14:44:17*
%MOMM*%
%LPD*%
G01*
G04 APERTURE LIST*
G04 Aperture macros list*
%AMRoundRect*
0 Rectangle with rounded corners*
0 $1 Rounding radius*
0 $2 $3 $4 $5 $6 $7 $8 $9 X,Y pos of 4 corners*
0 Add a 4 corners polygon primitive as box body*
4,1,4,$2,$3,$4,$5,$6,$7,$8,$9,$2,$3,0*
0 Add four circle primitives for the rounded corners*
1,1,$1+$1,$2,$3*
1,1,$1+$1,$4,$5*
1,1,$1+$1,$6,$7*
1,1,$1+$1,$8,$9*
0 Add four rect primitives between the rounded corners*
20,1,$1+$1,$2,$3,$4,$5,0*
20,1,$1+$1,$4,$5,$6,$7,0*
20,1,$1+$1,$6,$7,$8,$9,0*
20,1,$1+$1,$8,$9,$2,$3,0*%
G04 Aperture macros list end*
%ADD10C,1.397000*%
%ADD11C,3.200000*%
%ADD12C,1.524000*%
%ADD13RoundRect,0.090000X-0.660000X-0.360000X0.660000X-0.360000X0.660000X0.360000X-0.660000X0.360000X0*%
G04 APERTURE END LIST*
D10*
%TO.C,REF\u002A\u002A*%
X261000000Y-194500000D03*
X268620000Y-194500000D03*
X261000000Y-199580000D03*
X268620000Y-199580000D03*
%TD*%
%TO.C,REF\u002A\u002A*%
X261000000Y-33500000D03*
X268620000Y-33500000D03*
X261000000Y-38580000D03*
X268620000Y-38580000D03*
%TD*%
%TO.C,REF\u002A\u002A*%
X234690000Y-31960000D03*
X242310000Y-31960000D03*
X234690000Y-37040000D03*
X242310000Y-37040000D03*
%TD*%
%TO.C,REF\u002A\u002A*%
X208190000Y-32460000D03*
X215810000Y-32460000D03*
X208190000Y-37540000D03*
X215810000Y-37540000D03*
%TD*%
%TO.C,LED1*%
X179190000Y-30460000D03*
X186810000Y-30460000D03*
X179190000Y-35540000D03*
X186810000Y-35540000D03*
%TD*%
%TO.C,REF\u002A\u002A*%
X152690000Y-32460000D03*
X160310000Y-32460000D03*
X152690000Y-37540000D03*
X160310000Y-37540000D03*
%TD*%
%TO.C,REF\u002A\u002A*%
X158500000Y-192000000D03*
X166120000Y-192000000D03*
X158500000Y-197080000D03*
X166120000Y-197080000D03*
%TD*%
D11*
%TO.C,REF\u002A\u002A*%
X31500000Y-30000000D03*
%TD*%
%TO.C,REF\u002A\u002A*%
X286000000Y-198000000D03*
%TD*%
%TO.C,REF\u002A\u002A*%
X33500000Y-202500000D03*
%TD*%
D12*
%TO.C,REF\u002A\u002A*%
X75293200Y-193700000D03*
X72753200Y-193700000D03*
X70213200Y-193700000D03*
X67673200Y-193700000D03*
X65133200Y-193700000D03*
X62593200Y-193700000D03*
X60053200Y-193700000D03*
X57513200Y-193700000D03*
X54973200Y-193700000D03*
X52433200Y-193700000D03*
X49893200Y-193700000D03*
X47353200Y-193700000D03*
X44813200Y-193700000D03*
X42273200Y-193700000D03*
X39733200Y-193700000D03*
X75293200Y-168300000D03*
X72753200Y-168300000D03*
X70213200Y-168300000D03*
X67673200Y-168300000D03*
X65133200Y-168300000D03*
X62593200Y-168300000D03*
X60053200Y-168300000D03*
X57513200Y-168300000D03*
X54973200Y-168300000D03*
X52433200Y-168300000D03*
X49893200Y-168300000D03*
X47353200Y-168300000D03*
X47353200Y-168300000D03*
X44813200Y-168300000D03*
X39733200Y-168300000D03*
X42273200Y-168300000D03*
%TD*%
D13*
%TO.C,REF\u002A\u002A*%
X146550000Y-175350000D03*
X146550000Y-178650000D03*
X151450000Y-178650000D03*
X151450000Y-175350000D03*
%TD*%
D11*
%TO.C,REF\u002A\u002A*%
X290000000Y-30000000D03*
%TD*%
M02*
