%TF.GenerationSoftware,KiCad,Pcbnew,8.0.6*%
%TF.CreationDate,2024-11-12T14:45:22+00:00*%
%TF.ProjectId,A4,41342e6b-6963-4616-945f-706362585858,rev?*%
%TF.SameCoordinates,Original*%
%TF.FileFunction,Drillmap*%
%TF.FilePolarity,Positive*%
%FSLAX45Y45*%
G04 Gerber Fmt 4.5, Leading zero omitted, Abs format (unit mm)*
G04 Created by KiCad (PCBNEW 8.0.6) date 2024-11-12 14:45:22*
%MOMM*%
%LPD*%
G01*
G04 APERTURE LIST*
%ADD10C,0.200000*%
%ADD11C,0.320000*%
G04 APERTURE END LIST*
D10*
X2500000Y-2500000D02*
X29700000Y-2500000D01*
X29700000Y-21000000D01*
X2500000Y-21000000D01*
X2500000Y-2500000D01*
D11*
X2990000Y-2840000D02*
X3310000Y-3160000D01*
X3310000Y-2840000D02*
X2990000Y-3160000D01*
X3190000Y-20090000D02*
X3510000Y-20410000D01*
X3510000Y-20090000D02*
X3190000Y-20410000D01*
X28440000Y-19640000D02*
X28760000Y-19960000D01*
X28760000Y-19640000D02*
X28440000Y-19960000D01*
X28840000Y-2840000D02*
X29160000Y-3160000D01*
X29160000Y-2840000D02*
X28840000Y-3160000D01*
D10*
X2750777Y-21321484D02*
X2750777Y-21121484D01*
X2750777Y-21121484D02*
X2798396Y-21121484D01*
X2798396Y-21121484D02*
X2826967Y-21131008D01*
X2826967Y-21131008D02*
X2846015Y-21150055D01*
X2846015Y-21150055D02*
X2855539Y-21169103D01*
X2855539Y-21169103D02*
X2865062Y-21207198D01*
X2865062Y-21207198D02*
X2865062Y-21235770D01*
X2865062Y-21235770D02*
X2855539Y-21273865D01*
X2855539Y-21273865D02*
X2846015Y-21292912D01*
X2846015Y-21292912D02*
X2826967Y-21311960D01*
X2826967Y-21311960D02*
X2798396Y-21321484D01*
X2798396Y-21321484D02*
X2750777Y-21321484D01*
X2950777Y-21321484D02*
X2950777Y-21188150D01*
X2950777Y-21226246D02*
X2960301Y-21207198D01*
X2960301Y-21207198D02*
X2969824Y-21197674D01*
X2969824Y-21197674D02*
X2988872Y-21188150D01*
X2988872Y-21188150D02*
X3007920Y-21188150D01*
X3074586Y-21321484D02*
X3074586Y-21188150D01*
X3074586Y-21121484D02*
X3065062Y-21131008D01*
X3065062Y-21131008D02*
X3074586Y-21140531D01*
X3074586Y-21140531D02*
X3084110Y-21131008D01*
X3084110Y-21131008D02*
X3074586Y-21121484D01*
X3074586Y-21121484D02*
X3074586Y-21140531D01*
X3198396Y-21321484D02*
X3179348Y-21311960D01*
X3179348Y-21311960D02*
X3169824Y-21292912D01*
X3169824Y-21292912D02*
X3169824Y-21121484D01*
X3303158Y-21321484D02*
X3284110Y-21311960D01*
X3284110Y-21311960D02*
X3274586Y-21292912D01*
X3274586Y-21292912D02*
X3274586Y-21121484D01*
X3531729Y-21321484D02*
X3531729Y-21121484D01*
X3531729Y-21121484D02*
X3598396Y-21264341D01*
X3598396Y-21264341D02*
X3665062Y-21121484D01*
X3665062Y-21121484D02*
X3665062Y-21321484D01*
X3846015Y-21321484D02*
X3846015Y-21216722D01*
X3846015Y-21216722D02*
X3836491Y-21197674D01*
X3836491Y-21197674D02*
X3817443Y-21188150D01*
X3817443Y-21188150D02*
X3779348Y-21188150D01*
X3779348Y-21188150D02*
X3760301Y-21197674D01*
X3846015Y-21311960D02*
X3826967Y-21321484D01*
X3826967Y-21321484D02*
X3779348Y-21321484D01*
X3779348Y-21321484D02*
X3760301Y-21311960D01*
X3760301Y-21311960D02*
X3750777Y-21292912D01*
X3750777Y-21292912D02*
X3750777Y-21273865D01*
X3750777Y-21273865D02*
X3760301Y-21254817D01*
X3760301Y-21254817D02*
X3779348Y-21245293D01*
X3779348Y-21245293D02*
X3826967Y-21245293D01*
X3826967Y-21245293D02*
X3846015Y-21235770D01*
X3941253Y-21188150D02*
X3941253Y-21388150D01*
X3941253Y-21197674D02*
X3960301Y-21188150D01*
X3960301Y-21188150D02*
X3998396Y-21188150D01*
X3998396Y-21188150D02*
X4017443Y-21197674D01*
X4017443Y-21197674D02*
X4026967Y-21207198D01*
X4026967Y-21207198D02*
X4036491Y-21226246D01*
X4036491Y-21226246D02*
X4036491Y-21283389D01*
X4036491Y-21283389D02*
X4026967Y-21302436D01*
X4026967Y-21302436D02*
X4017443Y-21311960D01*
X4017443Y-21311960D02*
X3998396Y-21321484D01*
X3998396Y-21321484D02*
X3960301Y-21321484D01*
X3960301Y-21321484D02*
X3941253Y-21311960D01*
X4122205Y-21302436D02*
X4131729Y-21311960D01*
X4131729Y-21311960D02*
X4122205Y-21321484D01*
X4122205Y-21321484D02*
X4112682Y-21311960D01*
X4112682Y-21311960D02*
X4122205Y-21302436D01*
X4122205Y-21302436D02*
X4122205Y-21321484D01*
X4122205Y-21197674D02*
X4131729Y-21207198D01*
X4131729Y-21207198D02*
X4122205Y-21216722D01*
X4122205Y-21216722D02*
X4112682Y-21207198D01*
X4112682Y-21207198D02*
X4122205Y-21197674D01*
X4122205Y-21197674D02*
X4122205Y-21216722D01*
X2290000Y-21550000D02*
X2490000Y-21750000D01*
X2490000Y-21550000D02*
X2290000Y-21750000D01*
X2731729Y-21541484D02*
X2855539Y-21541484D01*
X2855539Y-21541484D02*
X2788872Y-21617674D01*
X2788872Y-21617674D02*
X2817443Y-21617674D01*
X2817443Y-21617674D02*
X2836491Y-21627198D01*
X2836491Y-21627198D02*
X2846015Y-21636722D01*
X2846015Y-21636722D02*
X2855539Y-21655770D01*
X2855539Y-21655770D02*
X2855539Y-21703389D01*
X2855539Y-21703389D02*
X2846015Y-21722436D01*
X2846015Y-21722436D02*
X2836491Y-21731960D01*
X2836491Y-21731960D02*
X2817443Y-21741484D01*
X2817443Y-21741484D02*
X2760301Y-21741484D01*
X2760301Y-21741484D02*
X2741253Y-21731960D01*
X2741253Y-21731960D02*
X2731729Y-21722436D01*
X2941253Y-21722436D02*
X2950777Y-21731960D01*
X2950777Y-21731960D02*
X2941253Y-21741484D01*
X2941253Y-21741484D02*
X2931729Y-21731960D01*
X2931729Y-21731960D02*
X2941253Y-21722436D01*
X2941253Y-21722436D02*
X2941253Y-21741484D01*
X3026967Y-21560531D02*
X3036491Y-21551008D01*
X3036491Y-21551008D02*
X3055539Y-21541484D01*
X3055539Y-21541484D02*
X3103158Y-21541484D01*
X3103158Y-21541484D02*
X3122205Y-21551008D01*
X3122205Y-21551008D02*
X3131729Y-21560531D01*
X3131729Y-21560531D02*
X3141253Y-21579579D01*
X3141253Y-21579579D02*
X3141253Y-21598627D01*
X3141253Y-21598627D02*
X3131729Y-21627198D01*
X3131729Y-21627198D02*
X3017443Y-21741484D01*
X3017443Y-21741484D02*
X3141253Y-21741484D01*
X3265062Y-21541484D02*
X3284110Y-21541484D01*
X3284110Y-21541484D02*
X3303158Y-21551008D01*
X3303158Y-21551008D02*
X3312682Y-21560531D01*
X3312682Y-21560531D02*
X3322205Y-21579579D01*
X3322205Y-21579579D02*
X3331729Y-21617674D01*
X3331729Y-21617674D02*
X3331729Y-21665293D01*
X3331729Y-21665293D02*
X3322205Y-21703389D01*
X3322205Y-21703389D02*
X3312682Y-21722436D01*
X3312682Y-21722436D02*
X3303158Y-21731960D01*
X3303158Y-21731960D02*
X3284110Y-21741484D01*
X3284110Y-21741484D02*
X3265062Y-21741484D01*
X3265062Y-21741484D02*
X3246015Y-21731960D01*
X3246015Y-21731960D02*
X3236491Y-21722436D01*
X3236491Y-21722436D02*
X3226967Y-21703389D01*
X3226967Y-21703389D02*
X3217443Y-21665293D01*
X3217443Y-21665293D02*
X3217443Y-21617674D01*
X3217443Y-21617674D02*
X3226967Y-21579579D01*
X3226967Y-21579579D02*
X3236491Y-21560531D01*
X3236491Y-21560531D02*
X3246015Y-21551008D01*
X3246015Y-21551008D02*
X3265062Y-21541484D01*
X3455539Y-21541484D02*
X3474586Y-21541484D01*
X3474586Y-21541484D02*
X3493634Y-21551008D01*
X3493634Y-21551008D02*
X3503158Y-21560531D01*
X3503158Y-21560531D02*
X3512682Y-21579579D01*
X3512682Y-21579579D02*
X3522205Y-21617674D01*
X3522205Y-21617674D02*
X3522205Y-21665293D01*
X3522205Y-21665293D02*
X3512682Y-21703389D01*
X3512682Y-21703389D02*
X3503158Y-21722436D01*
X3503158Y-21722436D02*
X3493634Y-21731960D01*
X3493634Y-21731960D02*
X3474586Y-21741484D01*
X3474586Y-21741484D02*
X3455539Y-21741484D01*
X3455539Y-21741484D02*
X3436491Y-21731960D01*
X3436491Y-21731960D02*
X3426967Y-21722436D01*
X3426967Y-21722436D02*
X3417443Y-21703389D01*
X3417443Y-21703389D02*
X3407920Y-21665293D01*
X3407920Y-21665293D02*
X3407920Y-21617674D01*
X3407920Y-21617674D02*
X3417443Y-21579579D01*
X3417443Y-21579579D02*
X3426967Y-21560531D01*
X3426967Y-21560531D02*
X3436491Y-21551008D01*
X3436491Y-21551008D02*
X3455539Y-21541484D01*
X3607920Y-21741484D02*
X3607920Y-21608150D01*
X3607920Y-21627198D02*
X3617443Y-21617674D01*
X3617443Y-21617674D02*
X3636491Y-21608150D01*
X3636491Y-21608150D02*
X3665063Y-21608150D01*
X3665063Y-21608150D02*
X3684110Y-21617674D01*
X3684110Y-21617674D02*
X3693634Y-21636722D01*
X3693634Y-21636722D02*
X3693634Y-21741484D01*
X3693634Y-21636722D02*
X3703158Y-21617674D01*
X3703158Y-21617674D02*
X3722205Y-21608150D01*
X3722205Y-21608150D02*
X3750777Y-21608150D01*
X3750777Y-21608150D02*
X3769824Y-21617674D01*
X3769824Y-21617674D02*
X3779348Y-21636722D01*
X3779348Y-21636722D02*
X3779348Y-21741484D01*
X3874586Y-21741484D02*
X3874586Y-21608150D01*
X3874586Y-21627198D02*
X3884110Y-21617674D01*
X3884110Y-21617674D02*
X3903158Y-21608150D01*
X3903158Y-21608150D02*
X3931729Y-21608150D01*
X3931729Y-21608150D02*
X3950777Y-21617674D01*
X3950777Y-21617674D02*
X3960301Y-21636722D01*
X3960301Y-21636722D02*
X3960301Y-21741484D01*
X3960301Y-21636722D02*
X3969824Y-21617674D01*
X3969824Y-21617674D02*
X3988872Y-21608150D01*
X3988872Y-21608150D02*
X4017443Y-21608150D01*
X4017443Y-21608150D02*
X4036491Y-21617674D01*
X4036491Y-21617674D02*
X4046015Y-21636722D01*
X4046015Y-21636722D02*
X4046015Y-21741484D01*
X4436491Y-21531960D02*
X4265063Y-21789103D01*
X4693634Y-21541484D02*
X4712682Y-21541484D01*
X4712682Y-21541484D02*
X4731729Y-21551008D01*
X4731729Y-21551008D02*
X4741253Y-21560531D01*
X4741253Y-21560531D02*
X4750777Y-21579579D01*
X4750777Y-21579579D02*
X4760301Y-21617674D01*
X4760301Y-21617674D02*
X4760301Y-21665293D01*
X4760301Y-21665293D02*
X4750777Y-21703389D01*
X4750777Y-21703389D02*
X4741253Y-21722436D01*
X4741253Y-21722436D02*
X4731729Y-21731960D01*
X4731729Y-21731960D02*
X4712682Y-21741484D01*
X4712682Y-21741484D02*
X4693634Y-21741484D01*
X4693634Y-21741484D02*
X4674587Y-21731960D01*
X4674587Y-21731960D02*
X4665063Y-21722436D01*
X4665063Y-21722436D02*
X4655539Y-21703389D01*
X4655539Y-21703389D02*
X4646015Y-21665293D01*
X4646015Y-21665293D02*
X4646015Y-21617674D01*
X4646015Y-21617674D02*
X4655539Y-21579579D01*
X4655539Y-21579579D02*
X4665063Y-21560531D01*
X4665063Y-21560531D02*
X4674587Y-21551008D01*
X4674587Y-21551008D02*
X4693634Y-21541484D01*
X4846015Y-21722436D02*
X4855539Y-21731960D01*
X4855539Y-21731960D02*
X4846015Y-21741484D01*
X4846015Y-21741484D02*
X4836491Y-21731960D01*
X4836491Y-21731960D02*
X4846015Y-21722436D01*
X4846015Y-21722436D02*
X4846015Y-21741484D01*
X5046015Y-21741484D02*
X4931729Y-21741484D01*
X4988872Y-21741484D02*
X4988872Y-21541484D01*
X4988872Y-21541484D02*
X4969825Y-21570055D01*
X4969825Y-21570055D02*
X4950777Y-21589103D01*
X4950777Y-21589103D02*
X4931729Y-21598627D01*
X5122206Y-21560531D02*
X5131729Y-21551008D01*
X5131729Y-21551008D02*
X5150777Y-21541484D01*
X5150777Y-21541484D02*
X5198396Y-21541484D01*
X5198396Y-21541484D02*
X5217444Y-21551008D01*
X5217444Y-21551008D02*
X5226968Y-21560531D01*
X5226968Y-21560531D02*
X5236491Y-21579579D01*
X5236491Y-21579579D02*
X5236491Y-21598627D01*
X5236491Y-21598627D02*
X5226968Y-21627198D01*
X5226968Y-21627198D02*
X5112682Y-21741484D01*
X5112682Y-21741484D02*
X5236491Y-21741484D01*
X5407920Y-21541484D02*
X5369825Y-21541484D01*
X5369825Y-21541484D02*
X5350777Y-21551008D01*
X5350777Y-21551008D02*
X5341253Y-21560531D01*
X5341253Y-21560531D02*
X5322206Y-21589103D01*
X5322206Y-21589103D02*
X5312682Y-21627198D01*
X5312682Y-21627198D02*
X5312682Y-21703389D01*
X5312682Y-21703389D02*
X5322206Y-21722436D01*
X5322206Y-21722436D02*
X5331729Y-21731960D01*
X5331729Y-21731960D02*
X5350777Y-21741484D01*
X5350777Y-21741484D02*
X5388872Y-21741484D01*
X5388872Y-21741484D02*
X5407920Y-21731960D01*
X5407920Y-21731960D02*
X5417444Y-21722436D01*
X5417444Y-21722436D02*
X5426968Y-21703389D01*
X5426968Y-21703389D02*
X5426968Y-21655770D01*
X5426968Y-21655770D02*
X5417444Y-21636722D01*
X5417444Y-21636722D02*
X5407920Y-21627198D01*
X5407920Y-21627198D02*
X5388872Y-21617674D01*
X5388872Y-21617674D02*
X5350777Y-21617674D01*
X5350777Y-21617674D02*
X5331729Y-21627198D01*
X5331729Y-21627198D02*
X5322206Y-21636722D01*
X5322206Y-21636722D02*
X5312682Y-21655770D01*
X5550777Y-21541484D02*
X5569825Y-21541484D01*
X5569825Y-21541484D02*
X5588872Y-21551008D01*
X5588872Y-21551008D02*
X5598396Y-21560531D01*
X5598396Y-21560531D02*
X5607920Y-21579579D01*
X5607920Y-21579579D02*
X5617444Y-21617674D01*
X5617444Y-21617674D02*
X5617444Y-21665293D01*
X5617444Y-21665293D02*
X5607920Y-21703389D01*
X5607920Y-21703389D02*
X5598396Y-21722436D01*
X5598396Y-21722436D02*
X5588872Y-21731960D01*
X5588872Y-21731960D02*
X5569825Y-21741484D01*
X5569825Y-21741484D02*
X5550777Y-21741484D01*
X5550777Y-21741484D02*
X5531729Y-21731960D01*
X5531729Y-21731960D02*
X5522206Y-21722436D01*
X5522206Y-21722436D02*
X5512682Y-21703389D01*
X5512682Y-21703389D02*
X5503158Y-21665293D01*
X5503158Y-21665293D02*
X5503158Y-21617674D01*
X5503158Y-21617674D02*
X5512682Y-21579579D01*
X5512682Y-21579579D02*
X5522206Y-21560531D01*
X5522206Y-21560531D02*
X5531729Y-21551008D01*
X5531729Y-21551008D02*
X5550777Y-21541484D01*
X5693634Y-21541484D02*
X5693634Y-21579579D01*
X5769825Y-21541484D02*
X5769825Y-21579579D01*
X6065063Y-21817674D02*
X6055539Y-21808150D01*
X6055539Y-21808150D02*
X6036491Y-21779579D01*
X6036491Y-21779579D02*
X6026968Y-21760531D01*
X6026968Y-21760531D02*
X6017444Y-21731960D01*
X6017444Y-21731960D02*
X6007920Y-21684341D01*
X6007920Y-21684341D02*
X6007920Y-21646246D01*
X6007920Y-21646246D02*
X6017444Y-21598627D01*
X6017444Y-21598627D02*
X6026968Y-21570055D01*
X6026968Y-21570055D02*
X6036491Y-21551008D01*
X6036491Y-21551008D02*
X6055539Y-21522436D01*
X6055539Y-21522436D02*
X6065063Y-21512912D01*
X6226968Y-21608150D02*
X6226968Y-21741484D01*
X6179348Y-21531960D02*
X6131729Y-21674817D01*
X6131729Y-21674817D02*
X6255539Y-21674817D01*
X6484110Y-21741484D02*
X6484110Y-21541484D01*
X6569825Y-21741484D02*
X6569825Y-21636722D01*
X6569825Y-21636722D02*
X6560301Y-21617674D01*
X6560301Y-21617674D02*
X6541253Y-21608150D01*
X6541253Y-21608150D02*
X6512682Y-21608150D01*
X6512682Y-21608150D02*
X6493634Y-21617674D01*
X6493634Y-21617674D02*
X6484110Y-21627198D01*
X6693634Y-21741484D02*
X6674587Y-21731960D01*
X6674587Y-21731960D02*
X6665063Y-21722436D01*
X6665063Y-21722436D02*
X6655539Y-21703389D01*
X6655539Y-21703389D02*
X6655539Y-21646246D01*
X6655539Y-21646246D02*
X6665063Y-21627198D01*
X6665063Y-21627198D02*
X6674587Y-21617674D01*
X6674587Y-21617674D02*
X6693634Y-21608150D01*
X6693634Y-21608150D02*
X6722206Y-21608150D01*
X6722206Y-21608150D02*
X6741253Y-21617674D01*
X6741253Y-21617674D02*
X6750777Y-21627198D01*
X6750777Y-21627198D02*
X6760301Y-21646246D01*
X6760301Y-21646246D02*
X6760301Y-21703389D01*
X6760301Y-21703389D02*
X6750777Y-21722436D01*
X6750777Y-21722436D02*
X6741253Y-21731960D01*
X6741253Y-21731960D02*
X6722206Y-21741484D01*
X6722206Y-21741484D02*
X6693634Y-21741484D01*
X6874587Y-21741484D02*
X6855539Y-21731960D01*
X6855539Y-21731960D02*
X6846015Y-21712912D01*
X6846015Y-21712912D02*
X6846015Y-21541484D01*
X7026968Y-21731960D02*
X7007920Y-21741484D01*
X7007920Y-21741484D02*
X6969825Y-21741484D01*
X6969825Y-21741484D02*
X6950777Y-21731960D01*
X6950777Y-21731960D02*
X6941253Y-21712912D01*
X6941253Y-21712912D02*
X6941253Y-21636722D01*
X6941253Y-21636722D02*
X6950777Y-21617674D01*
X6950777Y-21617674D02*
X6969825Y-21608150D01*
X6969825Y-21608150D02*
X7007920Y-21608150D01*
X7007920Y-21608150D02*
X7026968Y-21617674D01*
X7026968Y-21617674D02*
X7036491Y-21636722D01*
X7036491Y-21636722D02*
X7036491Y-21655770D01*
X7036491Y-21655770D02*
X6941253Y-21674817D01*
X7112682Y-21731960D02*
X7131730Y-21741484D01*
X7131730Y-21741484D02*
X7169825Y-21741484D01*
X7169825Y-21741484D02*
X7188872Y-21731960D01*
X7188872Y-21731960D02*
X7198396Y-21712912D01*
X7198396Y-21712912D02*
X7198396Y-21703389D01*
X7198396Y-21703389D02*
X7188872Y-21684341D01*
X7188872Y-21684341D02*
X7169825Y-21674817D01*
X7169825Y-21674817D02*
X7141253Y-21674817D01*
X7141253Y-21674817D02*
X7122206Y-21665293D01*
X7122206Y-21665293D02*
X7112682Y-21646246D01*
X7112682Y-21646246D02*
X7112682Y-21636722D01*
X7112682Y-21636722D02*
X7122206Y-21617674D01*
X7122206Y-21617674D02*
X7141253Y-21608150D01*
X7141253Y-21608150D02*
X7169825Y-21608150D01*
X7169825Y-21608150D02*
X7188872Y-21617674D01*
X7265063Y-21817674D02*
X7274587Y-21808150D01*
X7274587Y-21808150D02*
X7293634Y-21779579D01*
X7293634Y-21779579D02*
X7303158Y-21760531D01*
X7303158Y-21760531D02*
X7312682Y-21731960D01*
X7312682Y-21731960D02*
X7322206Y-21684341D01*
X7322206Y-21684341D02*
X7322206Y-21646246D01*
X7322206Y-21646246D02*
X7312682Y-21598627D01*
X7312682Y-21598627D02*
X7303158Y-21570055D01*
X7303158Y-21570055D02*
X7293634Y-21551008D01*
X7293634Y-21551008D02*
X7274587Y-21522436D01*
X7274587Y-21522436D02*
X7265063Y-21512912D01*
X7626968Y-21817674D02*
X7617444Y-21808150D01*
X7617444Y-21808150D02*
X7598396Y-21779579D01*
X7598396Y-21779579D02*
X7588872Y-21760531D01*
X7588872Y-21760531D02*
X7579349Y-21731960D01*
X7579349Y-21731960D02*
X7569825Y-21684341D01*
X7569825Y-21684341D02*
X7569825Y-21646246D01*
X7569825Y-21646246D02*
X7579349Y-21598627D01*
X7579349Y-21598627D02*
X7588872Y-21570055D01*
X7588872Y-21570055D02*
X7598396Y-21551008D01*
X7598396Y-21551008D02*
X7617444Y-21522436D01*
X7617444Y-21522436D02*
X7626968Y-21512912D01*
X7703158Y-21608150D02*
X7703158Y-21741484D01*
X7703158Y-21627198D02*
X7712682Y-21617674D01*
X7712682Y-21617674D02*
X7731730Y-21608150D01*
X7731730Y-21608150D02*
X7760301Y-21608150D01*
X7760301Y-21608150D02*
X7779349Y-21617674D01*
X7779349Y-21617674D02*
X7788872Y-21636722D01*
X7788872Y-21636722D02*
X7788872Y-21741484D01*
X7912682Y-21741484D02*
X7893634Y-21731960D01*
X7893634Y-21731960D02*
X7884111Y-21722436D01*
X7884111Y-21722436D02*
X7874587Y-21703389D01*
X7874587Y-21703389D02*
X7874587Y-21646246D01*
X7874587Y-21646246D02*
X7884111Y-21627198D01*
X7884111Y-21627198D02*
X7893634Y-21617674D01*
X7893634Y-21617674D02*
X7912682Y-21608150D01*
X7912682Y-21608150D02*
X7941253Y-21608150D01*
X7941253Y-21608150D02*
X7960301Y-21617674D01*
X7960301Y-21617674D02*
X7969825Y-21627198D01*
X7969825Y-21627198D02*
X7979349Y-21646246D01*
X7979349Y-21646246D02*
X7979349Y-21703389D01*
X7979349Y-21703389D02*
X7969825Y-21722436D01*
X7969825Y-21722436D02*
X7960301Y-21731960D01*
X7960301Y-21731960D02*
X7941253Y-21741484D01*
X7941253Y-21741484D02*
X7912682Y-21741484D01*
X8036492Y-21608150D02*
X8112682Y-21608150D01*
X8065063Y-21541484D02*
X8065063Y-21712912D01*
X8065063Y-21712912D02*
X8074587Y-21731960D01*
X8074587Y-21731960D02*
X8093634Y-21741484D01*
X8093634Y-21741484D02*
X8112682Y-21741484D01*
X8331730Y-21608150D02*
X8331730Y-21808150D01*
X8331730Y-21617674D02*
X8350777Y-21608150D01*
X8350777Y-21608150D02*
X8388873Y-21608150D01*
X8388873Y-21608150D02*
X8407920Y-21617674D01*
X8407920Y-21617674D02*
X8417444Y-21627198D01*
X8417444Y-21627198D02*
X8426968Y-21646246D01*
X8426968Y-21646246D02*
X8426968Y-21703389D01*
X8426968Y-21703389D02*
X8417444Y-21722436D01*
X8417444Y-21722436D02*
X8407920Y-21731960D01*
X8407920Y-21731960D02*
X8388873Y-21741484D01*
X8388873Y-21741484D02*
X8350777Y-21741484D01*
X8350777Y-21741484D02*
X8331730Y-21731960D01*
X8541254Y-21741484D02*
X8522206Y-21731960D01*
X8522206Y-21731960D02*
X8512682Y-21712912D01*
X8512682Y-21712912D02*
X8512682Y-21541484D01*
X8703158Y-21741484D02*
X8703158Y-21636722D01*
X8703158Y-21636722D02*
X8693635Y-21617674D01*
X8693635Y-21617674D02*
X8674587Y-21608150D01*
X8674587Y-21608150D02*
X8636492Y-21608150D01*
X8636492Y-21608150D02*
X8617444Y-21617674D01*
X8703158Y-21731960D02*
X8684111Y-21741484D01*
X8684111Y-21741484D02*
X8636492Y-21741484D01*
X8636492Y-21741484D02*
X8617444Y-21731960D01*
X8617444Y-21731960D02*
X8607920Y-21712912D01*
X8607920Y-21712912D02*
X8607920Y-21693865D01*
X8607920Y-21693865D02*
X8617444Y-21674817D01*
X8617444Y-21674817D02*
X8636492Y-21665293D01*
X8636492Y-21665293D02*
X8684111Y-21665293D01*
X8684111Y-21665293D02*
X8703158Y-21655770D01*
X8769825Y-21608150D02*
X8846015Y-21608150D01*
X8798396Y-21541484D02*
X8798396Y-21712912D01*
X8798396Y-21712912D02*
X8807920Y-21731960D01*
X8807920Y-21731960D02*
X8826968Y-21741484D01*
X8826968Y-21741484D02*
X8846015Y-21741484D01*
X8988873Y-21731960D02*
X8969825Y-21741484D01*
X8969825Y-21741484D02*
X8931730Y-21741484D01*
X8931730Y-21741484D02*
X8912682Y-21731960D01*
X8912682Y-21731960D02*
X8903158Y-21712912D01*
X8903158Y-21712912D02*
X8903158Y-21636722D01*
X8903158Y-21636722D02*
X8912682Y-21617674D01*
X8912682Y-21617674D02*
X8931730Y-21608150D01*
X8931730Y-21608150D02*
X8969825Y-21608150D01*
X8969825Y-21608150D02*
X8988873Y-21617674D01*
X8988873Y-21617674D02*
X8998396Y-21636722D01*
X8998396Y-21636722D02*
X8998396Y-21655770D01*
X8998396Y-21655770D02*
X8903158Y-21674817D01*
X9169825Y-21741484D02*
X9169825Y-21541484D01*
X9169825Y-21731960D02*
X9150777Y-21741484D01*
X9150777Y-21741484D02*
X9112682Y-21741484D01*
X9112682Y-21741484D02*
X9093635Y-21731960D01*
X9093635Y-21731960D02*
X9084111Y-21722436D01*
X9084111Y-21722436D02*
X9074587Y-21703389D01*
X9074587Y-21703389D02*
X9074587Y-21646246D01*
X9074587Y-21646246D02*
X9084111Y-21627198D01*
X9084111Y-21627198D02*
X9093635Y-21617674D01*
X9093635Y-21617674D02*
X9112682Y-21608150D01*
X9112682Y-21608150D02*
X9150777Y-21608150D01*
X9150777Y-21608150D02*
X9169825Y-21617674D01*
X9246016Y-21817674D02*
X9255539Y-21808150D01*
X9255539Y-21808150D02*
X9274587Y-21779579D01*
X9274587Y-21779579D02*
X9284111Y-21760531D01*
X9284111Y-21760531D02*
X9293635Y-21731960D01*
X9293635Y-21731960D02*
X9303158Y-21684341D01*
X9303158Y-21684341D02*
X9303158Y-21646246D01*
X9303158Y-21646246D02*
X9293635Y-21598627D01*
X9293635Y-21598627D02*
X9284111Y-21570055D01*
X9284111Y-21570055D02*
X9274587Y-21551008D01*
X9274587Y-21551008D02*
X9255539Y-21522436D01*
X9255539Y-21522436D02*
X9246016Y-21512912D01*
M02*
