M48
; DRILL file {KiCad 8.0.6} date 2024-11-12T14:45:13+0000
; FORMAT={-:-/ absolute / metric / decimal}
; #@! TF.CreationDate,2024-11-12T14:45:13+00:00
; #@! TF.GenerationSoftware,Kicad,Pcbnew,8.0.6
; #@! TF.FileFunction,Plated,1,2,PTH
FMAT,2
METRIC
; #@! TA.AperFunction,Plated,PTH,ComponentDrill
T1C0.762
; #@! TA.AperFunction,Plated,PTH,ComponentDrill
T2C0.813
%
G90
G05
T1
X39.733Y-168.3
X39.733Y-193.7
X42.273Y-168.3
X42.273Y-193.7
X44.813Y-168.3
X44.813Y-193.7
X47.353Y-168.3
X47.353Y-168.3
X47.353Y-193.7
X49.893Y-168.3
X49.893Y-193.7
X52.433Y-168.3
X52.433Y-193.7
X54.973Y-168.3
X54.973Y-193.7
X57.513Y-168.3
X57.513Y-193.7
X60.053Y-168.3
X60.053Y-193.7
X62.593Y-168.3
X62.593Y-193.7
X65.133Y-168.3
X65.133Y-193.7
X67.673Y-168.3
X67.673Y-193.7
X70.213Y-168.3
X70.213Y-193.7
X72.753Y-168.3
X72.753Y-193.7
X75.293Y-168.3
X75.293Y-193.7
T2
X152.69Y-32.46
X152.69Y-37.54
X158.5Y-192.0
X158.5Y-197.08
X160.31Y-32.46
X160.31Y-37.54
X166.12Y-192.0
X166.12Y-197.08
X179.19Y-30.46
X179.19Y-35.54
X186.81Y-30.46
X186.81Y-35.54
X208.19Y-32.46
X208.19Y-37.54
X215.81Y-32.46
X215.81Y-37.54
X234.69Y-31.96
X234.69Y-37.04
X242.31Y-31.96
X242.31Y-37.04
X261.0Y-33.5
X261.0Y-38.58
X261.0Y-194.5
X261.0Y-199.58
X268.62Y-33.5
X268.62Y-38.58
X268.62Y-194.5
X268.62Y-199.58
M30
