%TF.GenerationSoftware,KiCad,Pcbnew,8.0.6*%
%TF.CreationDate,2024-11-12T14:39:14+00:00*%
%TF.ProjectId,A4,41342e6b-6963-4616-945f-706362585858,rev?*%
%TF.SameCoordinates,Original*%
%TF.FileFunction,Copper,L2,Bot*%
%TF.FilePolarity,Positive*%
%FSLAX46Y46*%
G04 Gerber Fmt 4.6, Leading zero omitted, Abs format (unit mm)*
G04 Created by KiCad (PCBNEW 8.0.6) date 2024-11-12 14:39:14*
%MOMM*%
%LPD*%
G01*
G04 APERTURE LIST*
%TA.AperFunction,ComponentPad*%
%ADD10C,1.397000*%
%TD*%
%TA.AperFunction,ComponentPad*%
%ADD11C,1.524000*%
%TD*%
G04 APERTURE END LIST*
D10*
%TO.P,REF\u002A\u002A,1*%
%TO.N,N/C*%
X261000000Y-194500000D03*
X268620000Y-194500000D03*
%TO.P,REF\u002A\u002A,2*%
X261000000Y-199580000D03*
X268620000Y-199580000D03*
%TD*%
%TO.P,REF\u002A\u002A,1*%
%TO.N,N/C*%
X261000000Y-33500000D03*
X268620000Y-33500000D03*
%TO.P,REF\u002A\u002A,2*%
X261000000Y-38580000D03*
X268620000Y-38580000D03*
%TD*%
%TO.P,REF\u002A\u002A,1*%
%TO.N,N/C*%
X234690000Y-31960000D03*
X242310000Y-31960000D03*
%TO.P,REF\u002A\u002A,2*%
X234690000Y-37040000D03*
X242310000Y-37040000D03*
%TD*%
%TO.P,REF\u002A\u002A,1*%
%TO.N,N/C*%
X208190000Y-32460000D03*
X215810000Y-32460000D03*
%TO.P,REF\u002A\u002A,2*%
X208190000Y-37540000D03*
X215810000Y-37540000D03*
%TD*%
%TO.P,LED1,1*%
%TO.N,N/C*%
X179190000Y-30460000D03*
X186810000Y-30460000D03*
%TO.P,LED1,2*%
X179190000Y-35540000D03*
X186810000Y-35540000D03*
%TD*%
%TO.P,REF\u002A\u002A,1*%
%TO.N,N/C*%
X152690000Y-32460000D03*
X160310000Y-32460000D03*
%TO.P,REF\u002A\u002A,2*%
X152690000Y-37540000D03*
X160310000Y-37540000D03*
%TD*%
%TO.P,REF\u002A\u002A,1*%
%TO.N,N/C*%
X158500000Y-192000000D03*
X166120000Y-192000000D03*
%TO.P,REF\u002A\u002A,2*%
X158500000Y-197080000D03*
X166120000Y-197080000D03*
%TD*%
D11*
%TO.P,REF\u002A\u002A,14*%
%TO.N,N/C*%
X75293200Y-193700000D03*
%TO.P,REF\u002A\u002A,15*%
X72753200Y-193700000D03*
%TO.P,REF\u002A\u002A,16*%
X70213200Y-193700000D03*
%TO.P,REF\u002A\u002A,17*%
X67673200Y-193700000D03*
%TO.P,REF\u002A\u002A,18*%
X65133200Y-193700000D03*
%TO.P,REF\u002A\u002A,19*%
X62593200Y-193700000D03*
%TO.P,REF\u002A\u002A,20*%
X60053200Y-193700000D03*
%TO.P,REF\u002A\u002A,21*%
X57513200Y-193700000D03*
%TO.P,REF\u002A\u002A,22*%
X54973200Y-193700000D03*
%TO.P,REF\u002A\u002A,23*%
X52433200Y-193700000D03*
%TO.P,REF\u002A\u002A,24*%
X49893200Y-193700000D03*
%TO.P,REF\u002A\u002A,25*%
X47353200Y-193700000D03*
%TO.P,REF\u002A\u002A,26*%
X44813200Y-193700000D03*
%TO.P,REF\u002A\u002A,27*%
X42273200Y-193700000D03*
%TO.P,REF\u002A\u002A,28*%
X39733200Y-193700000D03*
%TO.P,REF\u002A\u002A,29*%
X75293200Y-168300000D03*
%TO.P,REF\u002A\u002A,30*%
X72753200Y-168300000D03*
%TO.P,REF\u002A\u002A,31*%
X70213200Y-168300000D03*
%TO.P,REF\u002A\u002A,32*%
X67673200Y-168300000D03*
%TO.P,REF\u002A\u002A,33*%
X65133200Y-168300000D03*
%TO.P,REF\u002A\u002A,34*%
X62593200Y-168300000D03*
%TO.P,REF\u002A\u002A,35*%
X60053200Y-168300000D03*
%TO.P,REF\u002A\u002A,36*%
X57513200Y-168300000D03*
%TO.P,REF\u002A\u002A,37*%
X54973200Y-168300000D03*
%TO.P,REF\u002A\u002A,38*%
X52433200Y-168300000D03*
%TO.P,REF\u002A\u002A,39*%
X49893200Y-168300000D03*
%TO.P,REF\u002A\u002A,40*%
X47353200Y-168300000D03*
%TO.P,REF\u002A\u002A,41*%
X47353200Y-168300000D03*
%TO.P,REF\u002A\u002A,42*%
X44813200Y-168300000D03*
%TO.P,REF\u002A\u002A,43*%
X39733200Y-168300000D03*
%TO.P,REF\u002A\u002A,44*%
X42273200Y-168300000D03*
%TD*%
M02*
